<svg width="39" height="39" viewBox="0 0 39 39" fill="none" xmlns="http://www.w3.org/2000/svg">
<circle cx="19.5" cy="19.5" r="19.5" fill="#211827"/>
<path d="M19.5 23.5107C23.5749 23.5107 26.8782 20.2074 26.8782 16.1325C26.8782 12.0576 23.5749 8.75427 19.5 8.75427C15.4251 8.75427 12.1218 12.0576 12.1218 16.1325C12.1218 20.2074 15.4251 23.5107 19.5 23.5107Z" fill="#00C5C5"/>
<path d="M19.5 4.0625C10.9867 4.0625 4.0625 10.9867 4.0625 19.5C4.0625 28.0133 10.9867 34.9375 19.5 34.9375C28.0133 34.9375 34.9375 28.0133 34.9375 19.5C34.9375 10.9867 28.0133 4.0625 19.5 4.0625ZM19.5 25.6674C14.9596 25.6674 11.138 27.1052 9.73805 29.0728C7.31648 26.6134 5.84084 23.2459 5.84084 19.5C5.84084 11.9704 11.9704 5.84084 19.5 5.84084C27.0296 5.84084 33.1592 11.9704 33.1592 19.5C33.1592 23.208 31.6835 26.5755 29.2619 29.0728C27.862 27.0674 24.0404 25.6674 19.5 25.6674Z" fill="#00C5C5"/>
</svg>
